<svg id="Layer_5" enable-background="new 0 0 64 64" height="512" viewBox="0 0 64 64" width="512" xmlns="http://www.w3.org/2000/svg" xmlns:xlink="http://www.w3.org/1999/xlink"><linearGradient id="SVGID_1_" gradientUnits="userSpaceOnUse" x1="32" x2="32" y1="63" y2="1"><stop offset="0" stop-color="#9f2fff"/><stop offset="1" stop-color="#0bb1d3"/></linearGradient><path d="m47 45h2v2h-2zm4 2h2v-2h-2zm4 0h2v-2h-2zm-35-24h-7v-2.255l6.406-11.745h2.594v12h2v2h-2v2h-2zm0-2v-8.912l-4.861 8.912zm27 2h-7v-2.255l6.406-11.745h2.594v12h2v2h-2v2h-2zm0-2v-8.912l-4.861 8.912zm-20 .414c-1.29-1.316-2-3.054-2-4.899v-.515c0-3.859 3.141-7 7-7s7 3.141 7 7v.515c0 1.846-.71 3.583-2 4.899v.586c0 1.654-1.346 3-3 3h-4c-1.654 0-3-1.346-3-3zm0-4.899c0 1.336.521 2.592 1.465 3.536l.535.535v1.414c0 .552.448 1 1 1h1v-2h2v2h1c.552 0 1-.448 1-1v-1.414l.535-.535c.944-.944 1.465-2.2 1.465-3.536v-.515c0-2.757-2.243-5-5-5s-5 2.243-5 5zm3-.515c.552 0 1-.448 1-1s-.448-1-1-1-1 .448-1 1 .448 1 1 1zm4 0c.552 0 1-.448 1-1s-.448-1-1-1-1 .448-1 1 .448 1 1 1zm29 0v30c0 2.757-2.243 5-5 5h-15.963c.168 1.595.997 3.041 2.296 4h2.667c1.654 0 3 1.346 3 3v2c0 1.654-1.346 3-3 3h-30c-1.654 0-3-1.346-3-3v-2c0-1.654 1.346-3 3-3h2.666c1.299-.959 2.128-2.405 2.296-4h-15.962c-2.757 0-5-2.243-5-5v-30c0-2.757 2.243-5 5-5h3v-5c0-2.757 2.243-5 5-5h36c2.757 0 5 2.243 5 5v5h3c2.757 0 5 2.243 5 5zm-52 12c0 1.654 1.346 3 3 3h15.721l1.911 5.735c.107.316.629.317.736-.001l1.911-5.734h15.721c1.654 0 3-1.346 3-3v-22c0-1.654-1.346-3-3-3h-36c-1.654 0-3 1.346-3 3zm-2 0v-11h-2v24h50v-24h-2v11c0 2.757-2.243 5-5 5h-14.279l-1.456 4.368c-.327.977-1.237 1.632-2.265 1.632s-1.938-.655-2.265-1.631l-1.456-4.369h-14.279c-2.757 0-5-2.243-5-5zm38 29h-30c-.552 0-1 .448-1 1v2c0 .552.448 1 1 1h30c.552 0 1-.448 1-1v-2c0-.552-.448-1-1-1zm-6.963-6h-16.074c-.114 1.464-.634 2.845-1.492 4h19.059c-.858-1.155-1.378-2.536-1.493-4zm20.963-35c0-1.654-1.346-3-3-3h-3v2h2c1.103 0 2 .897 2 2v24c0 1.103-.897 2-2 2h-50c-1.103 0-2-.897-2-2v-24c0-1.103.897-2 2-2h2v-2h-3c-1.654 0-3 1.346-3 3v30c0 1.654 1.346 3 3 3h52c1.654 0 3-1.346 3-3zm-46-11h-2v2h2zm4 0h-2v2h2zm4 0h-2v2h2zm26 24h2v-2h-2zm-8 0h2v-2h-2zm4 0h2v-2h-2z" fill="url(#SVGID_1_)"/></svg>